<svg width="24" height="9" viewBox="0 0 24 9" fill="none" xmlns="http://www.w3.org/2000/svg">
<path d="M17.945 0C16.807 0 15.568 0.129 14.55 0.491C12.267 1.319 11.759 1.329 9.448 0.491C8.432 0.129 7.192 0 6.055 0C4.084 0 1.886 0.387 0 0.878V2.667C0.848 2.922 1.068 3.294 1.203 4.16C1.584 6.603 2.459 9 6.272 9C9.308 9 10.323 6.741 10.994 4.655C11.334 3.595 12.656 3.568 13.002 4.64C13.676 6.729 14.684 9 17.728 9C21.541 9 22.416 6.603 22.797 4.159C22.932 3.293 23.152 2.922 24 2.666V0.878C22.114 0.387 19.916 0 17.945 0ZM10.262 3.814C9.744 5.988 8.902 8 6.272 8C2.971 8 2.298 6.097 1.997 3.027C1.924 2.28 2.088 1.987 2.217 1.832C3.165 0.698 8.17 0.744 9.828 1.74C10.304 2.025 10.612 2.341 10.262 3.814ZM22.003 3.027C21.701 6.097 21.028 8 17.728 8C15.098 8 14.256 5.988 13.739 3.814C13.388 2.341 13.697 2.025 14.173 1.74C15.837 0.74 20.84 0.702 21.784 1.832C21.912 1.988 22.076 2.281 22.003 3.027Z" fill="white"/>
</svg>
